<!--?xml version="1.0" standalone="no"?-->
              <svg id="sw-js-blob-svg" viewBox="0 0 100 100" xmlns="http://www.w3.org/2000/svg" version="1.1">
                    <defs> 
                        <linearGradient id="sw-gradient" x1="0" x2="1" y1="1" y2="0">
                            <stop id="stop1" stop-color="rgba(54, 63, 14, 1)" offset="0%"></stop>
                            <stop id="stop2" stop-color="rgba(231, 218, 120, 1)" offset="100%"></stop>
                        </linearGradient>
                    </defs>
                <path fill="url(#sw-gradient)" d="M21,-38C26.4,-33.3,29.4,-26,33,-19.2C36.7,-12.4,41.1,-6.2,42.4,0.8C43.7,7.8,42,15.5,38.4,22.3C34.7,29.2,29.2,35.1,22.5,39.4C15.8,43.7,7.9,46.5,1.1,44.6C-5.8,42.8,-11.6,36.4,-18,32C-24.5,27.5,-31.7,25,-36.6,20C-41.5,14.9,-44.2,7.5,-43.5,0.4C-42.9,-6.8,-39,-13.5,-34.8,-19.8C-30.6,-26,-26.2,-31.8,-20.3,-36.3C-14.5,-40.7,-7.2,-43.7,0.3,-44.2C7.8,-44.7,15.7,-42.7,21,-38Z" width="100%" height="100%" transform="translate(50 50)" stroke-width="0" style="transition: all 0.3s ease 0s;"></path>
              </svg>