<!--?xml version="1.0" standalone="no"?-->
              <svg id="sw-js-blob-svg" viewBox="0 0 100 100" xmlns="http://www.w3.org/2000/svg" version="1.1">
                    <defs> 
                        <linearGradient id="sw-gradient" x1="0" x2="1" y1="1" y2="0">
                            <stop id="stop1" stop-color="rgba(50, 150, 205, 1)" offset="0%"></stop>
                            <stop id="stop2" stop-color="rgba(6, 99, 154, 1)" offset="100%"></stop>
                        </linearGradient>
                    </defs>
                <path fill="url(#sw-gradient)" d="M11.3,-20.4C15.7,-17.1,20.9,-16.1,25.1,-13.1C29.2,-10.1,32.3,-5,34.8,1.4C37.3,7.9,39.3,15.9,35.5,19.5C31.7,23.1,22.1,22.4,15.2,26.7C8.4,31,4.2,40.3,-1.4,42.8C-7,45.2,-14.1,40.9,-17.2,34.4C-20.3,28,-19.6,19.4,-23.4,13.3C-27.3,7.2,-35.7,3.6,-38.1,-1.4C-40.5,-6.4,-36.8,-12.8,-32.4,-17.8C-27.9,-22.9,-22.7,-26.6,-17.2,-29.3C-11.7,-32,-5.8,-33.5,-1.2,-31.5C3.5,-29.4,7,-23.7,11.3,-20.4Z" width="100%" height="100%" transform="translate(50 50)" stroke-width="0" style="transition: all 0.3s ease 0s;" stroke="url(#sw-gradient)"></path>
              </svg>