<!--?xml version="1.0" standalone="no"?-->
              <svg id="sw-js-blob-svg" viewBox="0 0 100 100" xmlns="http://www.w3.org/2000/svg" version="1.1">
                    <defs> 
                        <linearGradient id="sw-gradient" x1="0" x2="1" y1="1" y2="0">
                            <stop id="stop1" stop-color="rgba(249, 250, 241, 1)" offset="0%"></stop>
                            <stop id="stop2" stop-color="rgba(241, 202, 125, 1)" offset="100%"></stop>
                        </linearGradient>
                    </defs>
                <path fill="url(#sw-gradient)" d="M21.4,-36.2C27.5,-33.6,32.1,-27.4,36.3,-20.7C40.6,-14.1,44.5,-7,44.5,0C44.5,7,40.5,14.1,35.6,19.5C30.7,25,24.8,28.9,18.7,31.3C12.6,33.7,6.3,34.6,0.3,34.1C-5.8,33.6,-11.5,31.8,-17.3,29.2C-23.2,26.7,-29,23.4,-32.8,18.4C-36.5,13.4,-38.1,6.7,-38.5,-0.2C-38.9,-7.1,-38,-14.3,-34.9,-20.3C-31.7,-26.4,-26.3,-31.3,-20.1,-33.8C-13.9,-36.3,-7,-36.3,0.3,-36.9C7.7,-37.5,15.3,-38.7,21.4,-36.2Z" width="100%" height="100%" transform="translate(50 50)" stroke-width="0" style="transition: all 0.3s ease 0s;" stroke="url(#sw-gradient)"></path>
              </svg>