<!--?xml version="1.0" standalone="no"?-->
              <svg id="sw-js-blob-svg" viewBox="0 0 100 100" xmlns="http://www.w3.org/2000/svg" version="1.1">
                    <defs> 
                        <linearGradient id="sw-gradient" x1="0" x2="1" y1="1" y2="0">
                            <stop id="stop1" stop-color="rgba(236, 180, 73, 1)" offset="0%"></stop>
                            <stop id="stop2" stop-color="rgba(144, 104, 47, 1)" offset="100%"></stop>
                        </linearGradient>
                    </defs>
                <path fill="url(#sw-gradient)" d="M19.5,-22.9C27.7,-16.4,38.4,-12.5,38,-7.7C37.6,-3,26.1,2.7,18.7,6.5C11.4,10.3,8.3,12.2,3.7,16.7C-0.8,21.2,-6.8,28.2,-14.6,29.8C-22.4,31.5,-32,27.8,-32.4,21.5C-32.7,15.2,-23.8,6.3,-21.7,-3.6C-19.6,-13.4,-24.5,-24.2,-22,-31.7C-19.5,-39.3,-9.8,-43.7,-2.1,-41.2C5.7,-38.8,11.3,-29.5,19.5,-22.9Z" width="100%" height="100%" transform="translate(50 50)" stroke-width="0" style="transition: all 0.3s ease 0s;"></path>
              </svg>